<svg xmlns="http://www.w3.org/2000/svg" xml:space="preserve" width="376.36661" height="87.987244" viewBox="0 0 376.36661 87.987242"><defs><linearGradient id="a" x1="0" x2="1" y1="0" y2="0" gradientTransform="scale(28.72392 -28.72392) rotate(37.412 29.437 -3.458)" gradientUnits="userSpaceOnUse" spreadMethod="pad"><stop offset="0" style="stop-opacity:1;stop-color:#b23314"/><stop offset="0.22108894" style="stop-opacity:1;stop-color:#f79210"/><stop offset="0.3" style="stop-opacity:1;stop-color:#f79210"/><stop offset="1" style="stop-opacity:1;stop-color:#f79210"/></linearGradient><linearGradient id="b" x1="0" x2="1" y1="0" y2="0" gradientTransform="scale(-28.72352 28.72352) rotate(37.412 -28.373 3.895)" gradientUnits="userSpaceOnUse" spreadMethod="pad"><stop offset="0" style="stop-opacity:1;stop-color:#b23314"/><stop offset="0.22108894" style="stop-opacity:1;stop-color:#f79210"/><stop offset="0.3" style="stop-opacity:1;stop-color:#f79210"/><stop offset="1" style="stop-opacity:1;stop-color:#f79210"/></linearGradient></defs><path d="M193.722 487.449h.49v-1.992l1.458 1.992h.652l-1.606-2.143 1.733-2.388h-.714l-1.523 2.22v-2.22h-.49zM198.09 483.412c.788 0 1.127.869 1.127 1.772 0 .92-.373 1.779-1.127 1.773-.754.006-1.126-.852-1.126-1.773 0-.903.338-1.772 1.126-1.772m0 4.115c1.04 0 1.645-.998 1.645-2.343 0-1.377-.602-2.344-1.645-2.344-1.042 0-1.645.967-1.645 2.344 0 1.345.607 2.343 1.645 2.343M200.858 485.501h.416c.465 0 .739.273.739.71 0 .407-.235.667-.685.667h-.47zm-.49 1.947h.837c.676 0 1.327-.142 1.327-1.226 0-.55-.31-.942-.705-1.032v-.013c.152-.078.224-.176.333-.453l.646-1.807h-.558l-.524 1.572c-.151.442-.312.442-.573.442h-.293v-2.014h-.49zM203.315 487.449h1.915v-.57h-1.425v-1.325h1.297v-.572h-1.297v-1.492h1.425v-.572h-1.915zM207.288 486.84l-.682-2.249h1.362zm-.24.608h.514l1.446-4.53h-.535l-.347 1.142h-1.676l-.348-1.143h-.513zM210.765 487.449h.489v-4.531h-.489zM212.064 487.449h.666l1.509-3.647h.009v3.647h.489v-4.531h-.626l-1.548 3.726h-.01v-3.726h-.489zM217.122 486.767c-.25.131-.386.19-.642.19-.274 0-.597-.131-.597-.604 0-.871 1.469-.67 1.469-2.162 0-.969-.562-1.352-1.248-1.352-.241 0-.475.092-.701.19l.049.603c.167-.092.46-.22.71-.22.28 0 .672.207.672.74 0 1.012-1.47.734-1.47 2.14 0 .807.48 1.235 1.097 1.235.225 0 .495-.051.729-.162zM218.676 486.878h-1.062v.57h2.615v-.57h-1.062v-3.96h-.49zM220.677 487.449h.49v-4.531h-.49zM222.672 486.878h-1.063v.57h2.616v-.57h-1.064v-3.96h-.489zM227.329 484.794c0-1.272-.484-1.955-1.325-1.955-.844 0-1.328.683-1.328 1.955v2.654h.49v-2.57c0-.869.205-1.467.838-1.467.63 0 .836.598.836 1.467v2.57h.489zM228.845 486.878h-1.062v.57h2.614v-.57h-1.062v-3.96h-.49zM230.859 487.449h1.913v-.57h-1.425v-1.325h1.298v-.572h-1.298v-1.492h1.425v-.572h-1.913zM235.882 483.333c.54 0 .78.648.78 1.24 0 .63-.29 1.24-.78 1.24-.493 0-.782-.61-.782-1.24 0-.592.24-1.24.782-1.24m0 2.973c.76 0 1.27-.727 1.27-1.733 0-.947-.52-1.734-1.27-1.734-.753 0-1.272.787-1.272 1.734 0 1.006.51 1.733 1.272 1.733M237.96 485.736h-.588v.492h.588v.307c0 .804.156 1.33.836 1.33.117 0 .216-.02.31-.04l-.02-.493a.548.548 0 0 1-.22.04c-.398 0-.446-.337-.446-.786v-.358h.661v-.492h-.66v-2.818h-.46zM243.234 486.703c-.216.17-.455.254-.704.254-.79 0-1.314-.754-1.314-1.774 0-1.064.58-1.771 1.289-1.771.245 0 .574.084.744.22l.029-.628c-.26-.145-.577-.164-.778-.164-1.082 0-1.802.922-1.802 2.363 0 1.396.765 2.324 1.807 2.324.263 0 .524-.051.769-.195zM243.814 487.449h.49v-4.531h-.49zM246.634 482.917h-.613l-1.287 4.531h.55l1.05-3.959h.011l1.081 3.96h.515zM248.379 487.449h.49v-4.531h-.49zM249.663 487.449h.49v-3.96h1.43v-.571h-1.92zM253.406 487.449h1.914v-.57h-1.425v-1.325h1.299v-.572h-1.3v-1.492h1.426v-.572h-1.914zM255.983 487.449h.666l1.509-3.647h.01v3.647h.489v-4.531h-.626l-1.548 3.726h-.011v-3.726h-.49zM262.06 486.644c-.239.209-.499.312-.939.312-.79 0-1.313-.759-1.313-1.773 0-1.064.577-1.771 1.288-1.771.338 0 .426.044.548.078v1.375h-.72v.533h1.21v-2.358c-.186-.084-.51-.201-1.043-.201-1.082 0-1.802.922-1.802 2.364 0 1.396.763 2.324 1.807 2.324.498 0 .72-.098 1.004-.227zM262.941 487.449h.491v-4.531h-.491zM264.239 487.449h.667l1.508-3.647h.009v3.647h.49v-4.531h-.627l-1.546 3.726h-.011v-3.726h-.49zM267.744 487.449h1.914v-.57h-1.425v-1.325h1.297v-.572h-1.297v-1.492h1.425v-.572h-1.914zM270.335 487.449h1.915v-.57h-1.426v-1.325h1.3v-.572h-1.3v-1.492h1.426v-.572h-1.915zM273.391 485.501h.417c.465 0 .738.273.738.71 0 .407-.234.667-.684.667h-.47zm-.489 1.947h.838c.674 0 1.327-.142 1.327-1.226 0-.55-.309-.942-.706-1.032v-.013c.151-.078.225-.176.333-.453l.646-1.807h-.559l-.523 1.572c-.152.442-.314.442-.573.442h-.294v-2.014h-.489zM275.837 487.449h.489v-4.531h-.489zM277.136 487.449h.666l1.508-3.647h.011v3.647h.49v-4.531h-.629l-1.547 3.726h-.01v-3.726h-.489zM283.213 486.644c-.239.209-.5.312-.939.312-.789 0-1.312-.759-1.312-1.773 0-1.064.577-1.771 1.287-1.771.337 0 .426.044.55.078v1.375h-.722v.533h1.21v-2.358c-.185-.084-.51-.201-1.043-.201-1.082 0-1.8.922-1.8 2.364 0 1.396.762 2.324 1.805 2.324.5 0 .72-.098 1.004-.227zM286.858 484.496c-.098 0-.195.014-.294.014-.25 0-.866-.053-.866-.637 0-.35.255-.54.465-.54.455 0 .695.378.695.87zm-1.366 1.5c.23.182.505.31.822.31.715 0 1.005-.466 1.005-1.37v-1.368c0-.377.01-.552.019-.65h-.43v.428h-.01c-.107-.2-.352-.506-.773-.506-.54 0-.916.312-.916 1.033 0 .83.685 1.09 1.159 1.09.18 0 .308 0 .49-.012 0 .57-.156.863-.617.863-.26 0-.538-.131-.724-.338zM288.011 486.228h.445v-.525h.01c.138.377.47.603.817.603.648 0 .937-.531.937-1.42v-1.969h-.46v1.715c0 .772-.128 1.149-.529 1.182-.525 0-.759-.559-.759-1.363v-1.534h-.46zM291.959 483.333c.519 0 .735.682.735 1.234 0 .616-.241 1.246-.74 1.246-.5 0-.694-.623-.685-1.228-.01-.518.196-1.252.69-1.252m.754.051h-.01c-.123-.246-.406-.545-.85-.545-.756 0-1.074.89-1.074 1.793 0 .89.353 1.674 1.078 1.674.435 0 .685-.227.827-.532h.01v2.012h.46v-4.869h-.441zM295.706 483.45h.367c.44 0 .837.124.837.734 0 .703-.465.798-.887.798h-.317zm0 2.066h.268c.476 0 .878.058.878.726 0 .539-.348.676-.631.676h-.515zm-.49 1.933h.926c.71 0 1.199-.303 1.199-1.143 0-.622-.274-.933-.704-1.078v-.011c.465-.053.793-.455.793-1.09 0-.975-.607-1.21-1.303-1.21h-.91zM300.643 484.794c0-1.272-.486-1.955-1.328-1.955-.842 0-1.326.683-1.326 1.955v2.654h.489v-2.57c0-.869.206-1.467.837-1.467.633 0 .838.598.838 1.467v2.57h.49zM301.459 487.449h.49v-4.531h-.49zM302.758 487.449h.488v-3.96h1.432v-.571h-1.92zM305.621 483.49h.514c.843 0 1.308.539 1.308 1.705 0 1.06-.543 1.684-1.248 1.684h-.574zm-.488 3.959h1.008c1.015 0 1.822-.83 1.822-2.227 0-1.517-.696-2.304-1.822-2.304h-1.008zM308.615 487.449h.488v-4.531h-.488zM309.912 487.449h.668l1.508-3.647h.01v3.647h.49v-4.531h-.629l-1.547 3.726h-.01v-3.726h-.49zM315.992 486.644c-.24.209-.5.312-.94.312-.788 0-1.312-.759-1.312-1.773 0-1.064.576-1.771 1.287-1.771.338 0 .426.044.55.078v1.375h-.722v.533h1.211v-2.358c-.187-.084-.51-.201-1.043-.201-1.084 0-1.804.922-1.804 2.364 0 1.396.763 2.324 1.808 2.324.498 0 .72-.098 1.004-.227zM318.877 486.878h-1.063v.57h2.616v-.57h-1.063v-3.96h-.49zM320.889 487.449h1.916v-.57h-1.426v-1.325h1.299v-.572h-1.3v-1.492h1.427v-.572h-1.916zM325.783 486.703c-.215.17-.455.254-.705.254-.787 0-1.31-.754-1.31-1.774 0-1.064.576-1.771 1.286-1.771.245 0 .573.084.745.22l.03-.628c-.26-.145-.579-.164-.78-.164-1.082 0-1.8.922-1.8 2.363 0 1.396.762 2.324 1.805 2.324.264 0 .524-.051.77-.195zM326.365 487.449h.49v-1.895h1.635v1.895h.49v-4.531h-.49v2.064h-1.635v-2.064h-.49zM329.81 487.449h.664l1.51-3.647h.01v3.647h.49v-4.531h-.627l-1.547 3.726h-.01v-3.726h-.49zM334.748 483.412c.787 0 1.125.869 1.125 1.772 0 .92-.371 1.779-1.125 1.773-.756.006-1.127-.852-1.127-1.773 0-.903.338-1.772 1.127-1.772m0 4.115c1.037 0 1.645-.998 1.645-2.343 0-1.377-.602-2.344-1.645-2.344-1.043 0-1.646.967-1.646 2.344 0 1.345.607 2.343 1.646 2.343M337.035 487.449h.49v-3.96h1.43v-.571h-1.92zM340.785 483.412c.79 0 1.127.869 1.127 1.772 0 .92-.373 1.779-1.127 1.773-.754.006-1.125-.852-1.125-1.773 0-.903.336-1.772 1.125-1.772m0 4.115c1.04 0 1.645-.998 1.645-2.343 0-1.377-.602-2.344-1.645-2.344-1.043 0-1.645.967-1.645 2.344 0 1.345.608 2.343 1.645 2.343M345.67 486.644c-.24.209-.5.312-.94.312-.788 0-1.312-.759-1.312-1.773 0-1.064.578-1.771 1.287-1.771.338 0 .428.044.549.078v1.375h-.72v.533h1.208v-2.358c-.183-.084-.507-.201-1.041-.201-1.082 0-1.803.922-1.803 2.364 0 1.396.764 2.324 1.807 2.324.5 0 .72-.098 1.004-.227zM347.492 484.814l-1.336 2.635h.572l1.02-2.032.992 2.032h.574l-1.332-2.635v-1.897h-.49zM264.747 505.623h5.44v-.06c0-.296-.071-7.25-5.967-7.855v-1.518c.732.024 8.663.49 8.783 9.373v1.471h-8.256zm11.205 1.592V491.4h1.583c.634 0 1.15.516 1.15 1.149v14.666zM289.18 504.183l.037-.035c1.384-1.238 3.71-1.906 6.91-1.987v1.358c-.543.014-5.156.256-5.426 3.86h-3.045v-.02c-.284-3.586-4.88-3.824-5.425-3.84v-1.358c3.2.081 5.527.75 6.91 1.987zm8.043-4.295v1.404h-15.896v-1.404h6.55v-1.46h-5.518v-1.405h10.967v-1.369H282.36v-2.95a1.3 1.3 0 0 1 1.3-1.302h12.385v1.404h-10.969v1.443h10.97v4.178h-5.452v1.461zM330.596 499.408c.52.17.81.666.81 1.152v6.469h-13.503v-1.412h10.787v-6.21h-11.873v-1.413h6.445V491.4h1.57a1.152 1.152 0 0 1 1.147 1.149v5.445h6.732v1.414zM304.049 492.806v4.27h-2.717v-4.373a1.3 1.3 0 0 1 1.299-1.3h12.027v1.403zm-1.758 10.027c0 1.756.946 3.082 2.203 3.082 1.256 0 2.203-1.326 2.203-3.082 0-1.757-.947-3.084-2.203-3.084-1.257 0-2.203 1.327-2.203 3.084m7.029-.982c.073.328.11.658.11.982 0 .284-.03.575-.086.864l-.014.068h2.43v-1.986h-2.455zm-.652-1.51.018.026h3.074v-4.508h1.584a1.15 1.15 0 0 1 1.148 1.148v10.207h-2.732v-2.035h-3l-.018.027c-.87 1.372-2.457 2.19-4.248 2.19-2.814 0-4.937-1.963-4.937-4.563 0-2.603 2.123-4.564 4.937-4.564 1.758 0 3.28.756 4.174 2.072M338.62 492.806v4.022h-2.718v-4.125a1.3 1.3 0 0 1 1.301-1.3h12.274v1.403zm1.581 13.115c1.201 0 2.072-.834 2.072-1.98 0-1.147-.87-1.98-2.072-1.98-1.199 0-2.07.833-2.07 1.98 0 1.146.871 1.98 2.07 1.98m0-5.373c2.777 0 4.791 1.428 4.791 3.393 0 1.965-2.014 3.39-4.79 3.39-2.776 0-4.79-1.425-4.79-3.39s2.014-3.393 4.79-3.393m-.245-5.679h2.605v3.47h4.032v-1.18h-2.709v-1.406h2.71v-1.302h1.567a1.15 1.15 0 0 1 1.148 1.15v11.617h-2.716v-7.475H334.66v-1.404h5.297zM247.866 498.546v-1.402h10.722v-1.428h-10.722v-3.014c0-.718.584-1.3 1.302-1.3h12.138v1.404h-10.723v1.506h10.723v4.234zm3.405 3.744.044.053.044-.053c1.108-1.304 3.077-2.238 5.143-2.435l.247-.018v1.36l-.26.033c-.037.004-3.75.537-3.75 5.334l.003.215v.441h-2.853v-.533c0-4.908-3.71-5.453-3.75-5.457l-.257-.034v-1.359l.248.018c2.064.197 4.035 1.131 5.14 2.435m7.303 4.94v-2.287h-3.37v-1.414h3.37v-4.077h1.582a1.15 1.15 0 0 1 1.15 1.151v6.627zM194.903 501.568c0 1.086.903 1.965 2.208 1.965 1.299 0 2.21-.88 2.21-1.965 0-1.084-.92-1.965-2.21-1.965-1.305 0-2.208.88-2.208 1.965m7.295 0c0 1.867-2.1 3.38-5.087 3.38-3.005 0-5.086-1.513-5.086-3.38s2.08-3.38 5.086-3.38c2.972 0 5.087 1.513 5.087 3.38m.12 5.186h-3.675v1.296h-2.897v-1.296h-3.676v-1.415h10.249zm-5.878-9.678h-2.718v-4.373c0-.72.584-1.301 1.302-1.301h12.025v1.404h-10.61zm10.444 6.93v3.208h-2.732v-11.355h1.583a1.15 1.15 0 0 1 1.149 1.148v5.584h2.24v1.415zM226.227 499.796v1.412h-2.118c.543.17.811.666.811 1.153v4.833h-13.504v-1.412h10.788v-4.574h-11.873v-1.412h6.445v-2.557h-5.36v-1.412h10.788V491.4h1.568c.634 0 1.148.515 1.148 1.148v4.691h-5.426v2.557zM237.295 503.704v-1.139h3.37v-6.707h1.58a1.15 1.15 0 0 1 1.152 1.151v10.205h-2.733v-3.235h-3.294c.135.55.21 1.153.21 1.821v1.414h-8.486V505.8h5.671s.121-5.54-6.217-5.834v-1.33s7.222-.196 8.747 5.068m-4.343-10.898v4.27h-2.717v-4.374c0-.719.583-1.3 1.301-1.3h12.138v1.405z" style="fill:#7b7873;fill-opacity:1;fill-rule:nonzero;stroke:none" transform="matrix(1.33333 0 0 -1.33333 -89.603 731.377)"/><path d="m121.946 544.374-5.97-7.115c2.417 2.853 7.386 5.519 11.967 4.705 6.071-1.08 6.845-7.256 4.509-10.717-2.815-4.17-9.961-5.115-14.868-5.115h-10.945l-9.752-11.623h15.471c8.761 0 23.02-.994 30.514 9.904 4.277 6.221 5.012 16.558-2.417 21.545a15.245 15.245 0 0 1-8.51 2.575c-4.082 0-7.871-1.608-9.999-4.159" style="fill:url(#a);stroke:none" transform="matrix(1.33333 0 0 -1.33333 -89.603 731.377)"/><path d="M70.407 527.848c-4.278-6.219-5.013-16.555 2.417-21.544 6.492-4.357 14.897-2.748 18.507 1.584l5.972 7.115c-2.418-2.851-7.386-5.519-11.967-4.705-6.071 1.08-6.845 7.256-4.509 10.718 2.815 4.168 9.961 5.116 14.867 5.116h10.945l9.754 11.622h-15.472c-1.351 0-2.834.023-4.401.023-8.598 0-19.776-.71-26.113-9.929" style="fill:url(#b);stroke:none" transform="matrix(1.33333 0 0 -1.33333 -89.603 731.377)"/><path d="M132.708 485.677v21.54h-6.582V482.91h3.595c1.186 0 2.987.67 2.987 2.766M148.751 502.496c4.697 1.588 9.106-.611 9.106-.611v4.818s-3.881 1.178-8.178.9c-3.348-.216-12.56-1.9-12.56-12.51 0-10.607 9.212-12.292 12.56-12.507 4.297-.28 8.178.898 8.178.898v4.819s-4.409-2.2-9.106-.612c-5.179 1.752-4.866 7.403-4.866 7.403s-.313 5.65 4.866 7.402M181.568 507.216h-20.822v-4.346h7.119v-19.959h3.595c1.186 0 2.987.67 2.987 2.766v17.193h7.12zM122.889 482.912l-10.626 13.19 9.552 11.115h-7.325l-8.588-10.235v10.235h-6.584v-24.305h3.596c1.187 0 2.988.67 2.988 2.766v8.884l9.154-11.65z" style="fill:#231f20;fill-opacity:1;fill-rule:nonzero;stroke:none" transform="matrix(1.33333 0 0 -1.33333 -89.603 731.377)"/></svg>